<?xml version="1.0" encoding="UTF-8" standalone="no"?> <svg xmlns="http://www.w3.org/2000/svg" viewBox="0 0 64 64"><title>1</title><g id="Layer_25" data-name="Layer 25"><path d="M16,44.71,3.19,50.34a2,2,0,0,0,.26,3.75l5.72,1.64,2.74,5.21A2,2,0,0,0,13.68,62l.26,0a2,2,0,0,0,1.69-1.53L18.74,47A2,2,0,0,0,16,44.71Zm-3,9.6-.63-1.2a2,2,0,0,0-1.22-1l-1.22-.35L13.94,50Z"/><path d="M42.71,29.29l-4.77-1.51a2,2,0,0,0-1.21,3.81l4.77,1.51a2,2,0,0,0,1.21-3.81Z"/><path d="M29.18,13.51l4.58,2a2,2,0,0,0,1.61-3.66l-4.58-2a2,2,0,0,0-1.61,3.66Z"/><path d="M25.9,26.06a2,2,0,0,0,1.3,2.51L32,30.08a2,2,0,0,0,1.21-3.81l-4.77-1.51A2,2,0,0,0,25.9,26.06Z"/><path d="M38.34,17.54l4.58,2a2,2,0,0,0,1.61-3.66l-4.58-2a2,2,0,0,0-1.61,3.66Z"/><path d="M20,9.48l4.58,2a2,2,0,0,0,1.61-3.66l-4.58-2A2,2,0,0,0,20,9.48Z"/><path d="M52.17,32.3l-4.7-1.49a2,2,0,0,0-1.21,3.81L51,36.12a2,2,0,0,0,1.31-3.78Z"/><path d="M46.46,18.94a2,2,0,0,0,1,2.64l4.58,2,0,0,.26.08.12,0a2,2,0,0,0,.34,0h0a2,2,0,0,0,.5-.07l.1,0a2,2,0,0,0,.45-.21l.07,0,.2-.14C55.49,22.11,62,16.15,62,11.4a9.13,9.13,0,1,0-18.26,0c0,2.25,1.47,4.77,3.14,6.93A2,2,0,0,0,46.46,18.94ZM52.87,6A5.28,5.28,0,0,1,58,11.4c0,1.84-2.68,5.2-5.13,7.62-2.41-2.4-5.13-5.79-5.13-7.62A5.28,5.28,0,0,1,52.87,6Z"/><path d="M27.59,39.51a9.9,9.9,0,0,0-2.81,1L22.5,41.79a2,2,0,1,0,1.93,3.51L26.71,44a5.91,5.91,0,0,1,1.68-.61,2,2,0,0,0-.79-3.92Z"/><path d="M56.56,44.88a2,2,0,0,0-2.81.3,5.92,5.92,0,0,1-3.09,2,2,2,0,1,0,1,3.87,9.94,9.94,0,0,0,5.19-3.33A2,2,0,0,0,56.56,44.88Z"/><path d="M47,46.94a5.88,5.88,0,0,1-.54-.24l-3.75-1.91a2,2,0,1,0-1.82,3.56l3.75,1.91q.45.23.9.41A2,2,0,0,0,47,46.94Z"/><path d="M38.24,42.51,34.1,40.4l-.4-.19A2,2,0,1,0,32,43.85l.24.11,4.14,2.11a2,2,0,1,0,1.82-3.56Z"/><path d="M54.44,35.5A2,2,0,0,0,54,38.29,5.69,5.69,0,0,1,55,41.59v.17A2,2,0,0,0,57,43.83H57a2,2,0,0,0,2-1.93c0-.1,0-.21,0-.31A9.67,9.67,0,0,0,57.23,36,2,2,0,0,0,54.44,35.5Z"/><path d="M7,17.34l.25,0A2,2,0,0,0,9,15.09a5.61,5.61,0,0,1,.43-2.95l.34-.79L8,10.51l1.82.83A2,2,0,1,0,6.17,9.68l-.06.13h0l-.32.74a9.6,9.6,0,0,0-.73,5A2,2,0,0,0,7,17.34Z"/><path d="M11.33,8.9a2,2,0,0,0,1-.25,6,6,0,0,1,3.62-.7,2,2,0,1,0,.49-4,10,10,0,0,0-6,1.17,2,2,0,0,0,1,3.75Z"/><path d="M23.65,23.24l-4.77-1.51a2,2,0,0,0-1.21,3.81l4.77,1.51a2,2,0,0,0,1.21-3.81Z"/><path d="M14.12,20.22l-1.06-.34a5.82,5.82,0,0,1-2.44-1.5,2,2,0,1,0-2.87,2.78,9.9,9.9,0,0,0,4.11,2.54L12.9,24a2,2,0,1,0,1.21-3.81Z"/></g></svg>